<svg xmlns="http://www.w3.org/2000/svg" width="24" height="24" viewBox="0 0 24 24">
  <path d="M2.4 0A2.4 2.4 0 0 0 0 2.4v19.2A2.4 2.4 0 0 0 2.4 24h19.2a2.4 2.4 0 0 0 2.4-2.4V2.4A2.4 2.4 0 0 0 21.6 0Zm0 1.2h19.2c.67 0 1.2.53 1.2 1.2v19.2c0 .67-.53 1.2-1.2 1.2H2.4a1.2 1.2 0 0 1-1.2-1.2V2.4c0-.67.53-1.2 1.2-1.2Zm1.2 1.2c-.67 0-1.2.53-1.2 1.2v2.11c0 .67.53 1.2 1.2 1.2h12c.67 0 1.2-.53 1.2-1.2V3.6c0-.67-.53-1.2-1.2-1.2Zm.6 1.2H15c.34 0 .6.26.6.6v.91a.6.6 0 0 1-.6.6H4.2a.6.6 0 0 1-.6-.6V4.2c0-.34.26-.6.6-.6ZM3.6 8c-.67 0-1.2.54-1.2 1.2v2.1c0 .68.53 1.2 1.2 1.2h16.75c.67 0 1.2-.52 1.2-1.2V9.2c0-.66-.53-1.2-1.2-1.2Zm.6 1.2h15.55c.34 0 .6.26.6.6v.9a.6.6 0 0 1-.6.6H4.2a.6.6 0 0 1-.6-.6v-.9c0-.34.26-.6.6-.6Zm-.6 4.4c-.67 0-1.2.54-1.2 1.2v2.12c0 .65.53 1.2 1.2 1.2h16.8c.67 0 1.2-.55 1.2-1.2v-2.11c0-.67-.53-1.2-1.2-1.2Zm.6 1.2h15.6c.34 0 .6.27.6.6v.92a.6.6 0 0 1-.6.6H4.2a.6.6 0 0 1-.6-.6v-.91c0-.34.26-.6.6-.6Zm5.4 4.4a1.2 1.2 0 1 0 0 2.4h4.8a1.2 1.2 0 1 0 0-2.4Z"/>
</svg>
